<svg width="1439" height="867" viewBox="0 0 1439 867" fill="none" xmlns="http://www.w3.org/2000/svg">
<path d="M1.5 3.37018L3.69167 5.34455L4.69564 4.23008L14.087 12.6903L13.083 13.8047L22.4743 22.265L23.4783 21.1505L32.8696 29.6107L31.8657 30.7252L41.257 39.1854L42.261 38.0709L51.6523 46.5311L50.6483 47.6456L60.0397 56.1058L61.0436 54.9913L70.435 63.4515L69.431 64.566L78.8223 73.0262L79.8263 71.9117L89.2176 80.3719L88.2137 81.4864L97.605 89.9466L98.609 88.8321L108 97.2923L106.996 98.4068L116.388 106.867L117.392 105.753L126.783 114.213L125.779 115.327L135.17 123.787L136.174 122.673L145.566 131.133L144.562 132.248L149.257 136.478C150.754 137.826 152.254 139.168 153.758 140.504L154.754 139.383C157.756 142.049 160.772 144.692 163.802 147.309L162.821 148.444C165.856 151.066 168.905 153.663 171.967 156.235L172.932 155.087C175.99 157.655 179.062 160.199 182.147 162.719L181.198 163.881C184.317 166.427 187.449 168.948 190.594 171.444L191.526 170.269C194.666 172.761 197.819 175.227 200.984 177.668L200.069 178.856C203.24 181.301 206.424 183.722 209.621 186.116L210.52 184.916C213.729 187.319 216.95 189.697 220.183 192.049L219.301 193.262C222.55 195.626 225.813 197.964 229.087 200.277L229.953 199.051C233.222 201.36 236.503 203.643 239.796 205.9L238.948 207.137C242.253 209.402 245.57 211.641 248.898 213.855L249.729 212.606C253.071 214.828 256.426 217.024 259.792 219.195L258.979 220.455C262.35 222.63 265.734 224.778 269.129 226.9L269.924 225.628C273.313 227.746 276.714 229.838 280.125 231.904L279.348 233.188C282.785 235.269 286.234 237.325 289.693 239.353L290.452 238.06C293.909 240.087 297.377 242.088 300.855 244.062L300.114 245.367C303.599 247.345 307.094 249.297 310.6 251.222L311.322 249.907C314.832 251.835 318.352 253.736 321.883 255.61L321.18 256.935C324.727 258.818 328.284 260.675 331.851 262.505L332.536 261.17C336.097 262.997 339.668 264.797 343.248 266.57L342.583 267.914C346.173 269.692 349.773 271.443 353.382 273.168L354.029 271.814C357.647 273.543 361.275 275.245 364.912 276.92L364.284 278.282C367.927 279.96 371.58 281.611 375.241 283.234L375.849 281.863C379.504 283.484 383.168 285.078 386.84 286.645L386.252 288.025C389.945 289.601 393.646 291.149 397.356 292.671L397.925 291.283C401.631 292.803 405.345 294.295 409.067 295.761L408.517 297.156C412.246 298.624 415.983 300.065 419.727 301.479L420.257 300.075C424.003 301.489 427.756 302.876 431.517 304.236L431.008 305.646C434.781 307.011 438.563 308.347 442.352 309.657L442.842 308.239C446.624 309.546 450.413 310.826 454.209 312.078L453.739 313.502C457.545 314.758 461.358 315.986 465.178 317.187L465.628 315.756C469.45 316.958 473.278 318.131 477.113 319.278L476.683 320.715C480.525 321.863 484.373 322.984 488.227 324.077L488.636 322.634C492.483 323.725 496.337 324.789 500.196 325.826L499.807 327.274C503.682 328.315 507.564 329.328 511.451 330.314L511.82 328.86C515.7 329.843 519.586 330.799 523.477 331.728L523.128 333.187C527.026 334.117 530.929 335.019 534.837 335.893L535.164 334.43C539.071 335.304 542.983 336.151 546.9 336.97L546.593 338.438C550.518 339.259 554.448 340.052 558.382 340.817L558.669 339.345C562.596 340.109 566.528 340.845 570.463 341.553L570.197 343.029C574.143 343.739 578.092 344.422 582.045 345.076L582.29 343.596C586.24 344.25 590.193 344.876 594.15 345.474L593.925 346.958C597.889 347.557 601.856 348.128 605.825 348.672L606.029 347.185C609.993 347.728 613.959 348.243 617.929 348.73L617.746 350.219C621.727 350.707 625.71 351.167 629.695 351.6L629.857 350.108C633.835 350.54 637.816 350.944 641.798 351.319L641.658 352.813C645.647 353.189 649.639 353.538 653.633 353.858L653.753 352.363C657.742 352.683 661.734 352.976 665.727 353.24L665.628 354.737C669.628 355.001 673.629 355.238 677.631 355.447L677.71 353.949C681.705 354.158 685.702 354.338 689.699 354.491L689.642 355.99C693.647 356.143 697.654 356.268 701.661 356.365L701.697 354.865C705.697 354.962 709.698 355.031 713.699 355.071L713.684 356.571C717.692 356.612 721.7 356.625 725.708 356.61L725.702 355.11C729.703 355.095 733.704 355.052 737.704 354.981L737.731 356.481C741.738 356.41 745.745 356.311 749.751 356.184L749.704 354.685C753.703 354.558 757.701 354.403 761.699 354.221L761.767 355.719C765.771 355.536 769.774 355.325 773.775 355.086L773.686 353.589C777.679 353.351 781.671 353.084 785.661 352.79L785.771 354.286C789.768 353.991 793.763 353.669 797.757 353.318L797.626 351.824C801.612 351.474 805.596 351.096 809.578 350.69L809.73 352.182C813.716 351.776 817.699 351.342 821.68 350.88L821.507 349.39C825.481 348.929 829.452 348.44 833.42 347.923L833.614 349.41C837.589 348.893 841.561 348.347 845.53 347.773L845.315 346.289C849.274 345.717 853.229 345.117 857.18 344.489L857.415 345.971C861.372 345.342 865.326 344.686 869.276 344.001L869.019 342.523C872.962 341.841 876.901 341.13 880.836 340.391L881.112 341.866C885.05 341.126 888.984 340.359 892.914 339.565L892.616 338.094C896.536 337.302 900.451 336.481 904.361 335.633L904.679 337.099C908.595 336.25 912.507 335.373 916.414 334.468L916.076 333.006C919.974 332.103 923.867 331.173 927.754 330.215L928.113 331.671C932.001 330.713 935.884 329.727 939.76 328.714L939.381 327.262C943.251 326.251 947.115 325.212 950.974 324.145L951.373 325.591C955.238 324.522 959.097 323.426 962.95 322.302L962.53 320.862C966.366 319.743 970.196 318.597 974.018 317.423L974.459 318.857C978.288 317.681 982.111 316.478 985.927 315.248L985.467 313.82C989.276 312.592 993.078 311.336 996.873 310.053L997.354 311.474C1001.15 310.191 1004.93 308.882 1008.71 307.544L1008.21 306.13C1011.98 304.797 1015.74 303.436 1019.49 302.048L1020.01 303.455C1023.77 302.065 1027.53 300.647 1031.27 299.202L1030.73 297.803C1034.46 296.363 1038.18 294.896 1041.9 293.402L1042.46 294.793C1046.17 293.3 1049.88 291.779 1053.57 290.231L1052.99 288.848C1056.68 287.303 1060.36 285.731 1064.04 284.132L1064.63 285.507C1068.31 283.906 1071.98 282.279 1075.64 280.624L1075.02 279.257C1078.66 277.612 1082.28 275.939 1085.9 274.24L1086.54 275.598C1090.17 273.896 1093.78 272.167 1097.39 270.412L1096.73 269.063C1100.33 267.31 1103.92 265.531 1107.5 263.725L1108.18 265.065C1111.75 263.263 1115.31 261.435 1118.86 259.58L1118.17 258.251C1121.71 256.401 1125.24 254.525 1128.76 252.622L1129.48 253.942C1133 252.036 1136.52 250.103 1140.03 248.144L1139.29 246.835C1142.78 244.885 1146.26 242.909 1149.73 240.906L1150.48 242.205C1153.94 240.205 1157.4 238.179 1160.84 236.126L1160.07 234.838C1163.51 232.789 1166.93 230.714 1170.34 228.613L1171.13 229.89C1174.54 227.788 1177.95 225.659 1181.34 223.504L1180.53 222.238C1183.9 220.099 1187.25 217.934 1190.6 215.743L1191.42 216.998C1194.77 214.803 1198.11 212.583 1201.43 210.337L1200.59 209.094C1203.91 206.852 1207.22 204.584 1210.51 202.29L1211.37 203.521C1214.65 201.237 1217.91 198.927 1221.17 196.592L1220.3 195.373C1223.54 193.046 1226.77 190.693 1229.99 188.315L1230.88 189.521C1234.11 187.139 1237.32 184.731 1240.51 182.298L1239.61 181.104C1242.79 178.683 1245.96 176.237 1249.11 173.765L1250.04 174.946C1253.18 172.483 1256.32 169.995 1259.43 167.482L1258.49 166.315C1261.6 163.806 1264.7 161.273 1267.79 158.714L1268.75 159.869C1271.84 157.306 1274.91 154.718 1277.98 152.105L1277 150.964C1280.03 148.379 1283.05 145.77 1286.05 143.136L1287.04 144.263C1290.05 141.626 1293.04 138.964 1296.02 136.278L1295.01 135.164C1297.99 132.482 1300.95 129.776 1303.89 127.045L1304.91 128.145C1306.38 126.777 1307.86 125.403 1309.32 124.023L1313.99 119.633L1312.96 118.54L1322.3 109.759L1323.33 110.852L1332.66 102.071L1331.64 100.979L1340.97 92.198L1342 93.2906L1351.34 84.5098L1350.31 83.4172L1359.64 74.6365L1360.67 75.7291L1370.01 66.9483L1368.98 65.8557L1378.32 57.0749L1379.34 58.1676L1388.68 49.3868L1387.65 48.2942L1396.99 39.5134L1398.02 40.6061L1407.35 31.8253L1406.32 30.7327L1415.66 21.9519L1416.69 23.0445L1426.02 14.2638L1425 13.1711L1434.33 4.39038L1435.36 5.48304L1437.5 3.46999V6.02045H1439V18.0621H1437.5V30.1038H1439V42.1455H1437.5V54.1872H1439V66.2289H1437.5V78.2706H1439V90.3123H1437.5V102.354H1439V114.396H1437.5V126.437H1439V138.479H1437.5V150.521H1439V162.562H1437.5V174.604H1439V186.646H1437.5V198.687H1439V210.729H1437.5V222.771H1439V234.812H1437.5V246.854H1439V258.896H1437.5V270.938H1439V282.979H1437.5V295.021H1439V307.063H1437.5V319.104H1439V331.146H1437.5V343.188H1439V355.229H1437.5V367.271H1439V379.313H1437.5V391.354H1439V403.396H1437.5V415.438H1439V427.479H1437.5V439.521H1439V451.563H1437.5V463.604H1439V475.646H1437.5V487.688H1439V499.729H1437.5V511.771H1439V523.813H1437.5V535.854H1439V547.896H1437.5V559.938H1439V571.979H1437.5V584.021H1439V596.062H1437.5V608.104H1439V620.146H1437.5V632.187H1439V644.229H1437.5V656.271H1439V668.312H1437.5V680.354H1439V692.396H1437.5V704.438H1439V716.479H1437.5V728.521H1439V740.562H1437.5V752.604H1439V764.646H1437.5V776.688H1439V788.729H1437.5V800.771H1439V812.813H1437.5V824.854H1439V836.896H1437.5V848.938H1439V860.979H1437.5V865.5H1433V867H1421.01V865.5H1409.02V867H1397.03V865.5H1385.04V867H1373.05V865.5H1361.05V867H1349.06V865.5H1337.07V867H1325.08V865.5H1313.09V867H1301.1V865.5H1289.1V867H1277.11V865.5H1265.12V867H1253.13V865.5H1241.14V867H1229.15V865.5H1217.15V867H1205.16V865.5H1193.17V867H1181.18V865.5H1169.19V867H1157.2V865.5H1145.2V867H1133.21V865.5H1121.22V867H1109.23V865.5H1097.24V867H1085.24V865.5H1073.25V867H1061.26V865.5H1049.27V867H1037.28V865.5H1025.29V867H1013.29V865.5H1001.3V867H989.311V865.5H977.32V867H965.328V865.5H953.336V867H941.345V865.5H929.353V867H917.362V865.5H905.37V867H893.378V865.5H881.387V867H869.395V865.5H857.403V867H845.412V865.5H833.42V867H821.429V865.5H809.437V867H797.445V865.5H785.454V867H773.462V865.5H761.47V867H749.479V865.5H737.487V867H725.495V865.5H713.504V867H701.512V865.5H689.521V867H677.529V865.5H665.537V867H653.546V865.5H641.554V867H629.562V865.5H617.571V867H605.579V865.5H593.587V867H581.596V865.5H569.604V867H557.612V865.5H545.621V867H533.629V865.5H521.638V867H509.646V865.5H497.654V867H485.663V865.5H473.671V867H461.679V865.5H449.688V867H437.696V865.5H425.704V867H413.713V865.5H401.721V867H389.729V865.5H377.738V867H365.746V865.5H353.754V867H341.763V865.5H329.771V867H317.779V865.5H305.788V867H293.796V865.5H281.804V867H269.813V865.5H257.821V867H245.829V865.5H233.838V867H221.846V865.5H209.854V867H197.863V865.5H185.871V867H173.879V865.5H161.888V867H149.896V865.5H137.904V867H125.913V865.5H113.921V867H101.929V865.5H89.9375V867H77.9458V865.5H65.9542V867H53.9625V865.5H41.9708V867H29.9792V865.5H17.9875V867H5.99583V865.5H1.5V860.98H0V848.938H1.5V836.896H0V824.854H1.5V812.813H0V800.771H1.5V788.729H0V776.688H1.5V764.646H0V752.604H1.5V740.563H0V728.521H1.5V716.479H0V704.438H1.5V692.396H0V680.354H1.5V668.313H0V656.271H1.5V644.229H0V632.188H1.5V620.146H0V608.104H1.5V596.062H0V584.021H1.5V571.979H0V559.937H1.5V547.896H0V535.854H1.5V523.812H0V511.771H1.5V499.729H0V487.687H1.5V475.646H0V463.604H1.5V451.562H0V439.521H1.5V427.479H0V415.437H1.5V403.396H0V391.354H1.5V379.312H0V367.271H1.5V355.229H0V343.188H1.5V331.146H0V319.104H1.5V307.063H0V295.021H1.5V282.979H0V270.938H1.5V258.896H0V246.854H1.5V234.813H0V222.771H1.5V210.729H0V198.688H1.5V186.646H0V174.604H1.5V162.563H0V150.521H1.5V138.479H0V126.438H1.5V114.396H0V102.354H1.5V90.3125H0V78.2708H1.5V66.2292H0V54.1875H1.5V42.1458H0V30.1042H1.5V18.0625H0V6.02083H1.5V3.37018Z" stroke="#5290F2" stroke-width="3" stroke-dasharray="12 12"/>
</svg>
