<svg width="38" height="42" viewBox="0 0 38 42" fill="none" xmlns="http://www.w3.org/2000/svg">
<path d="M5.90552 17.8107C5.90552 15.7212 7.43808 14.0273 9.32859 14.0273H30.5482C32.4387 14.0273 33.9713 15.7212 33.9713 17.8107V32.0105C33.9713 34.1 32.4387 35.7939 30.5482 35.7939H9.32858C7.43808 35.7939 5.90552 34.1 5.90552 32.0105V17.8107Z" fill="#917EBD"/>
<path d="M4.599 15.1055C4.599 13.7125 5.62071 12.5833 6.88105 12.5833H30.3827C31.6431 12.5833 32.6648 13.7125 32.6648 15.1055V31.8276C32.6648 33.2206 31.6431 34.3498 30.3827 34.3498H6.88104C5.6207 34.3498 4.599 33.2206 4.599 31.8276V15.1055Z" fill="white"/>
<path fill-rule="evenodd" clip-rule="evenodd" d="M6.881 11.9526H30.3827C31.9581 11.9526 33.2352 13.3642 33.2352 15.1055V31.8275C33.2352 33.5688 31.9581 34.9803 30.3827 34.9803H6.881C5.30557 34.9803 4.02844 33.5688 4.02844 31.8275V15.1055C4.02844 13.3642 5.30558 11.9526 6.881 11.9526ZM6.881 12.5832C5.62066 12.5832 4.59895 13.7125 4.59895 15.1055V31.8275C4.59895 33.2205 5.62066 34.3498 6.881 34.3498H30.3827C31.643 34.3498 32.6647 33.2205 32.6647 31.8275V15.1055C32.6647 13.7125 31.643 12.5832 30.3827 12.5832H6.881Z" fill="#917EBD"/>
<path d="M15.481 14.3884C15.481 13.8235 15.8953 13.3655 16.4065 13.3655H20.8573C21.3684 13.3655 21.7828 13.8235 21.7828 14.3884C21.7828 14.9534 21.3684 15.4114 20.8573 15.4114H16.4065C15.8953 15.4114 15.481 14.9534 15.481 14.3884Z" fill="#917EBD"/>
<path fill-rule="evenodd" clip-rule="evenodd" d="M8.84337 18.2109H15.4084C16.3537 18.2109 17.12 19.0579 17.12 20.1026V29.7575C17.12 30.8023 16.3537 31.6492 15.4084 31.6492H8.84337C7.89811 31.6492 7.13184 30.8023 7.13184 29.7575V20.1026C7.13184 19.0579 7.89812 18.2109 8.84337 18.2109ZM8.84337 18.8415C8.2132 18.8415 7.70235 19.4061 7.70235 20.1026V29.7575C7.70235 30.454 8.2132 31.0187 8.84337 31.0187H15.4084C16.0386 31.0187 16.5495 30.454 16.5495 29.7575V20.1026C16.5495 19.4061 16.0386 18.8415 15.4084 18.8415H8.84337Z" fill="#917EBD"/>
<path fill-rule="evenodd" clip-rule="evenodd" d="M10.0494 26.8722C10.2049 27.2727 10.5352 27.5674 10.973 27.769C11.4462 27.9869 12.0097 28.0779 12.4995 28.0779C12.9892 28.0779 13.5527 27.9869 14.0259 27.769C14.4637 27.5674 14.794 27.2727 14.9495 26.8722C14.7901 26.4871 14.4009 26.1861 13.904 25.9749C13.3777 25.7511 12.8096 25.6628 12.4995 25.6628C12.1893 25.6628 11.6213 25.7511 11.0949 25.9749C10.598 26.1861 10.2089 26.4871 10.0494 26.8722ZM10.8901 25.3864C11.4832 25.1342 12.1207 25.0322 12.4995 25.0322C12.8782 25.0322 13.5157 25.1342 14.1088 25.3864C14.69 25.6334 15.3116 26.0608 15.5257 26.7706C15.5452 26.8353 15.5452 26.9053 15.5257 26.97C15.3177 27.6595 14.8046 28.0935 14.2453 28.3511C13.6851 28.609 13.043 28.7084 12.4995 28.7084C11.9559 28.7084 11.3138 28.609 10.7536 28.3511C10.1943 28.0935 9.68119 27.6595 9.47326 26.97C9.45374 26.9053 9.45374 26.8353 9.47326 26.7706C9.68734 26.0608 10.3089 25.6334 10.8901 25.3864Z" fill="#917EBD"/>
<path fill-rule="evenodd" clip-rule="evenodd" d="M11.432 21.0817C11.3164 20.8871 11.1125 20.7781 10.9015 20.8002C10.6828 20.823 10.4954 20.9827 10.4197 21.2106C10.2351 21.7664 10.2799 22.2919 10.5805 22.6901C10.6509 22.7833 10.7294 22.8613 10.8118 22.9267C10.7762 23.0772 10.7573 23.235 10.7573 23.3975C10.7573 24.4239 11.5101 25.256 12.4388 25.256C13.3563 25.256 14.1022 24.4437 14.12 23.4343C14.1286 23.3374 14.1409 23.1419 14.1212 22.9755C14.0466 22.244 13.7273 21.735 13.2441 21.4558C12.8059 21.2026 12.3017 21.1801 11.9036 21.2045C11.7029 21.2168 11.5761 21.1725 11.5062 21.1346C11.4591 21.1092 11.4372 21.0869 11.432 21.0817ZM13.5549 23.0527C13.446 21.9545 12.6702 21.789 11.9352 21.8341C11.7477 21.8456 11.5884 21.8238 11.4558 21.7838C11.1725 21.6985 11.0108 21.5304 10.9552 21.4279C10.8273 21.813 10.8752 22.0827 11.0052 22.2677C11.0219 22.2915 11.0399 22.3138 11.0591 22.3349C11.1995 22.4886 11.4016 22.5711 11.588 22.6077C11.4631 22.7719 11.3764 22.9728 11.343 23.1936C11.333 23.2599 11.3278 23.328 11.3278 23.3975C11.3278 24.0757 11.8252 24.6254 12.4388 24.6254C13.0524 24.6254 13.5498 24.0757 13.5498 23.3975C13.5572 23.327 13.5687 23.1594 13.5549 23.0527Z" fill="#917EBD"/>
<path fill-rule="evenodd" clip-rule="evenodd" d="M12.7524 26.6932C12.7524 26.5191 12.8802 26.3779 13.0377 26.3779H13.8544C14.0119 26.3779 14.1396 26.5191 14.1396 26.6932C14.1396 26.8673 14.0119 27.0085 13.8544 27.0085H13.0377C12.8802 27.0085 12.7524 26.8673 12.7524 26.6932Z" fill="#917EBD"/>
<path fill-rule="evenodd" clip-rule="evenodd" d="M18.7823 27.9547C18.7823 27.7806 18.91 27.6394 19.0676 27.6394H24.8926C25.0501 27.6394 25.1778 27.7806 25.1778 27.9547C25.1778 28.1288 25.0501 28.27 24.8926 28.27H19.0676C18.91 28.27 18.7823 28.1288 18.7823 27.9547Z" fill="#917EBD"/>
<path fill-rule="evenodd" clip-rule="evenodd" d="M18.7823 26.0324C18.7823 25.8583 18.91 25.7172 19.0676 25.7172H29.7386C29.8961 25.7172 30.0238 25.8583 30.0238 26.0324C30.0238 26.2066 29.8961 26.3477 29.7386 26.3477H19.0676C18.91 26.3477 18.7823 26.2066 18.7823 26.0324Z" fill="#917EBD"/>
<path fill-rule="evenodd" clip-rule="evenodd" d="M18.7823 24.1068C18.7823 23.9327 18.91 23.7915 19.0676 23.7915H29.7386C29.8961 23.7915 30.0238 23.9327 30.0238 24.1068C30.0238 24.281 29.8961 24.4221 29.7386 24.4221H19.0676C18.91 24.4221 18.7823 24.281 18.7823 24.1068Z" fill="#917EBD"/>
<path fill-rule="evenodd" clip-rule="evenodd" d="M18.7822 22.1812C18.7822 22.0071 18.9099 21.866 19.0675 21.866H29.7385C29.896 21.866 30.0237 22.0071 30.0237 22.1812C30.0237 22.3554 29.896 22.4965 29.7385 22.4965H19.0675C18.9099 22.4965 18.7822 22.3554 18.7822 22.1812Z" fill="#917EBD"/>
<path d="M18.8361 19.2778C18.8361 18.9039 19.1103 18.6008 19.4486 18.6008H29.4662C29.8045 18.6008 30.0787 18.9039 30.0787 19.2778C30.0787 19.6517 29.8045 19.9548 29.4662 19.9548H19.4486C19.1103 19.9548 18.8361 19.6517 18.8361 19.2778Z" fill="#917EBD"/>
<path d="M17.0938 7.46699C17.0938 7.11874 17.3492 6.83643 17.6643 6.83643H19.5993C19.9144 6.83643 20.1698 7.11874 20.1698 7.46699V14.2981H17.0938V7.46699Z" fill="white"/>
<path fill-rule="evenodd" clip-rule="evenodd" d="M20.7404 14.9289H16.5233V7.46719C16.5233 6.77068 17.0342 6.20605 17.6643 6.20605H19.5994C20.2296 6.20605 20.7404 6.77068 20.7404 7.46719V14.9289ZM17.6643 6.83662C17.3493 6.83662 17.0938 7.11893 17.0938 7.46719V14.2983H20.1699V7.46719C20.1699 7.11893 19.9145 6.83662 19.5994 6.83662H17.6643Z" fill="#917EBD"/>
<path d="M19.4213 8.52146C19.4213 9.00335 19.0678 9.39399 18.6318 9.39399C18.1958 9.39399 17.8424 9.00335 17.8424 8.52146C17.8424 8.03957 18.1958 7.64893 18.6318 7.64893C19.0678 7.64893 19.4213 8.03957 19.4213 8.52146Z" fill="#917EBD"/>
</svg>
