<svg width="38" height="38" viewBox="0 0 38 38" fill="none" xmlns="http://www.w3.org/2000/svg">
<path d="M12.7997 24.4445C13.2483 23.4371 14.4825 23.0569 15.4202 23.6372C16.2957 24.1791 16.5478 25.3386 15.9763 26.1951L12.2389 31.7958C11.8737 32.343 11.1465 32.5128 10.5768 32.1839C10.0236 31.8645 9.80088 31.1789 10.0607 30.5954L12.7997 24.4445Z" fill="#917EBD"/>
<path d="M25.4825 24.4445C25.0339 23.4371 23.7997 23.0569 22.862 23.6372C21.9865 24.1791 21.7345 25.3386 22.306 26.1951L26.0434 31.7958C26.4085 32.343 27.1357 32.5128 27.7054 32.1839C28.2586 31.8645 28.4813 31.1789 28.2215 30.5954L25.4825 24.4445Z" fill="#917EBD"/>
<path d="M17.5347 8.88556C17.5347 8.06128 18.2029 7.39307 19.0272 7.39307V7.39307C19.8514 7.39307 20.5197 8.06128 20.5197 8.88556V9.17159C20.5197 9.99587 19.8514 10.6641 19.0272 10.6641V10.6641C18.2029 10.6641 17.5347 9.99587 17.5347 9.17159V8.88556Z" fill="white"/>
<path fill-rule="evenodd" clip-rule="evenodd" d="M21.1134 8.88556V9.17159C21.1134 10.3238 20.1794 11.2578 19.0272 11.2578C17.875 11.2578 16.9409 10.3238 16.9409 9.17159V8.88556C16.9409 7.73336 17.875 6.79932 19.0272 6.79932C20.1794 6.79932 21.1134 7.73336 21.1134 8.88556ZM19.0272 7.39307C18.2029 7.39307 17.5347 8.06128 17.5347 8.88556V9.17159C17.5347 9.99587 18.2029 10.6641 19.0272 10.6641C19.8514 10.6641 20.5197 9.99587 20.5197 9.17159V8.88556C20.5197 8.06128 19.8514 7.39307 19.0272 7.39307Z" fill="#917EBD"/>
<path d="M7.06537 8.6048C5.31347 10.3567 5.06731 13.0441 6.32691 15.0589C6.67457 15.6151 7.44131 15.6102 7.90505 15.1464L13.607 9.44449C14.0707 8.98074 14.0756 8.214 13.5195 7.86634C11.5047 6.60675 8.81726 6.8529 7.06537 8.6048Z" fill="#917EBD"/>
<path d="M30.9346 8.60505C32.6865 10.3569 32.9327 13.0444 31.6731 15.0592C31.3254 15.6153 30.5587 15.6104 30.0949 15.1467L24.393 9.44473C23.9293 8.98099 23.9244 8.21425 24.4805 7.86659C26.4953 6.60699 29.1827 6.85315 30.9346 8.60505Z" fill="#917EBD"/>
<path d="M30.2573 20.0436C30.2573 26.325 25.1652 31.4171 18.8838 31.4171C12.6025 31.4171 7.51038 26.325 7.51038 20.0436C7.51038 13.7622 12.6025 8.67017 18.8838 8.67017C25.1652 8.67017 30.2573 13.7622 30.2573 20.0436Z" fill="white"/>
<path fill-rule="evenodd" clip-rule="evenodd" d="M30.8511 20.0436C30.8511 26.6529 25.4932 32.0108 18.8838 32.0108C12.2745 32.0108 6.91663 26.6529 6.91663 20.0436C6.91663 13.4343 12.2745 8.07642 18.8838 8.07642C25.4932 8.07642 30.8511 13.4343 30.8511 20.0436ZM18.8838 31.4171C25.1652 31.4171 30.2573 26.325 30.2573 20.0436C30.2573 13.7622 25.1652 8.67017 18.8838 8.67017C12.6025 8.67017 7.51038 13.7622 7.51038 20.0436C7.51038 26.325 12.6025 31.4171 18.8838 31.4171Z" fill="#917EBD"/>
<path fill-rule="evenodd" clip-rule="evenodd" d="M18.9448 9.72314C13.2785 9.72314 8.68506 14.3166 8.68506 19.9829C8.68506 25.6492 13.2785 30.2427 18.9448 30.2427C24.6111 30.2427 29.2046 25.6492 29.2046 19.9829C29.2046 14.3166 24.6111 9.72314 18.9448 9.72314ZM8.09131 19.9829C8.09131 13.9887 12.9506 9.12939 18.9448 9.12939C24.939 9.12939 29.7983 13.9887 29.7983 19.9829C29.7983 25.9771 24.939 30.8364 18.9448 30.8364C12.9506 30.8364 8.09131 25.9771 8.09131 19.9829Z" fill="#917EBD"/>
<path d="M19.4351 13.7506C19.4351 13.4462 19.1883 13.1995 18.8839 13.1995C18.5796 13.1995 18.3328 13.4462 18.3328 13.7506V19.5072C18.3328 19.8115 18.5796 20.0583 18.8839 20.0583C19.1883 20.0583 19.4351 19.8115 19.4351 19.5072V13.7506Z" fill="#917EBD"/>
<path d="M19.2728 20.7923C19.5447 20.4839 19.5151 20.0135 19.2067 19.7416C18.8983 19.4697 18.4279 19.4993 18.156 19.8077L15.3884 22.9468C15.1165 23.2552 15.1461 23.7257 15.4545 23.9976C15.7629 24.2695 16.2333 24.2399 16.5052 23.9315L19.2728 20.7923Z" fill="#917EBD"/>
<path d="M19.9854 20.0437C19.9854 20.652 19.4922 21.1452 18.8839 21.1452C18.2755 21.1452 17.7823 20.652 17.7823 20.0437C17.7823 19.4353 18.2755 18.9421 18.8839 18.9421C19.4922 18.9421 19.9854 19.4353 19.9854 20.0437Z" fill="white"/>
<path fill-rule="evenodd" clip-rule="evenodd" d="M20.5792 20.0437C20.5792 20.9799 19.8201 21.7389 18.8839 21.7389C17.9476 21.7389 17.1886 20.9799 17.1886 20.0437C17.1886 19.1074 17.9476 18.3484 18.8839 18.3484C19.8201 18.3484 20.5792 19.1074 20.5792 20.0437ZM18.8839 21.1452C19.4922 21.1452 19.9854 20.652 19.9854 20.0437C19.9854 19.4353 19.4922 18.9421 18.8839 18.9421C18.2755 18.9421 17.7823 19.4353 17.7823 20.0437C17.7823 20.652 18.2755 21.1452 18.8839 21.1452Z" fill="#917EBD"/>
<path d="M23.9164 27.3015C24.0725 27.5719 23.9799 27.9176 23.7095 28.0738C23.4391 28.2299 23.0934 28.1372 22.9373 27.8668C22.7812 27.5965 22.8738 27.2507 23.1442 27.0946C23.4146 26.9385 23.7603 27.0312 23.9164 27.3015Z" fill="#917EBD"/>
<path d="M15.0636 11.9682C15.2197 12.2386 15.127 12.5844 14.8566 12.7405C14.5863 12.8966 14.2405 12.8039 14.0844 12.5335C13.9283 12.2632 14.021 11.9174 14.2913 11.7613C14.5617 11.6052 14.9075 11.6979 15.0636 11.9682Z" fill="#917EBD"/>
<path d="M11.6161 24.8334C11.3457 24.9895 11 24.8969 10.8439 24.6265C10.6878 24.3561 10.7804 24.0104 11.0508 23.8543C11.3212 23.6982 11.6669 23.7908 11.823 24.0612C11.9791 24.3316 11.8865 24.6773 11.6161 24.8334Z" fill="#917EBD"/>
<path d="M26.9496 15.9807C26.6793 16.1368 26.3335 16.0441 26.1774 15.7738C26.0213 15.5034 26.114 15.1576 26.3843 15.0015C26.6547 14.8454 27.0005 14.9381 27.1566 15.2085C27.3127 15.4788 27.22 15.8246 26.9496 15.9807Z" fill="#917EBD"/>
<path d="M26.9497 23.8542C27.2201 24.0103 27.3127 24.3561 27.1566 24.6264C27.0005 24.8968 26.6548 24.9895 26.3844 24.8334C26.114 24.6772 26.0214 24.3315 26.1775 24.0611C26.3336 23.7908 26.6793 23.6981 26.9497 23.8542Z" fill="#917EBD"/>
<path d="M11.6164 15.0016C11.8868 15.1577 11.9795 15.5034 11.8234 15.7738C11.6673 16.0442 11.3215 16.1368 11.0511 15.9807C10.7808 15.8246 10.6881 15.4789 10.8442 15.2085C11.0003 14.9381 11.3461 14.8455 11.6164 15.0016Z" fill="#917EBD"/>
<path d="M15.0634 27.8669C14.9073 28.1372 14.5616 28.2299 14.2912 28.0738C14.0208 27.9177 13.9282 27.5719 14.0843 27.3016C14.2404 27.0312 14.5861 26.9385 14.8565 27.0946C15.1269 27.2507 15.2195 27.5965 15.0634 27.8669Z" fill="#917EBD"/>
<path d="M23.9161 12.5336C23.76 12.8039 23.4142 12.8966 23.1438 12.7405C22.8735 12.5844 22.7808 12.2386 22.9369 11.9683C23.093 11.6979 23.4388 11.6052 23.7091 11.7613C23.9795 11.9175 24.0722 12.2632 23.9161 12.5336Z" fill="#917EBD"/>
<path d="M27.7043 19.2491C28.1511 19.2491 28.5134 19.6113 28.5134 20.0582C28.5134 20.505 28.1511 20.8672 27.7043 20.8672C27.2575 20.8672 26.8952 20.505 26.8952 20.0582C26.8952 19.6113 27.2575 19.2491 27.7043 19.2491Z" fill="#917EBD"/>
<path d="M10.3135 19.1865C10.7173 19.1865 11.0447 19.5139 11.0447 19.9177C11.0447 20.3215 10.7173 20.6489 10.3135 20.6489C9.90964 20.6489 9.58228 20.3215 9.58228 19.9177C9.58228 19.5139 9.90964 19.1865 10.3135 19.1865Z" fill="#917EBD"/>
<path d="M19.7651 28.6024C19.7651 29.0248 19.4227 29.3672 19.0003 29.3672C18.5779 29.3672 18.2355 29.0248 18.2355 28.6024C18.2355 28.1801 18.5779 27.8376 19.0003 27.8376C19.4227 27.8376 19.7651 28.1801 19.7651 28.6024Z" fill="#917EBD"/>
<path d="M19.6287 11.1641C19.6287 11.5838 19.2885 11.924 18.8689 11.924C18.4492 11.924 18.1091 11.5838 18.1091 11.1641C18.1091 10.7445 18.4492 10.4043 18.8689 10.4043C19.2885 10.4043 19.6287 10.7445 19.6287 11.1641Z" fill="#917EBD"/>
</svg>
