<svg width="80" height="56" viewBox="0 0 80 56" fill="none" xmlns="http://www.w3.org/2000/svg">
<path d="M9.1817 11.5808L9.46659 4.96274C9.49762 4.24202 10.2762 3.80592 10.907 4.15598L22.2614 10.4576C22.73 10.7177 22.8991 11.3084 22.639 11.777L16.0463 23.6558C15.7863 24.1244 15.1956 24.2934 14.7269 24.0334L3.37254 17.7317C2.74179 17.3817 2.69995 16.4902 3.29514 16.0826L8.76051 12.3397C9.01252 12.1671 9.16857 11.8859 9.1817 11.5808Z" fill="#E16104"/>
<path d="M70.6521 45.6964L76.1175 41.9535C76.7127 41.5459 76.6708 40.6544 76.0401 40.3044L64.6857 34.0028C64.2171 33.7427 63.6264 33.9117 63.3663 34.3803L56.7736 46.2591C56.5136 46.7277 56.6826 47.3184 57.1512 47.5785L68.5056 53.8801C69.1364 54.2302 69.915 53.7941 69.946 53.0734L70.2309 46.4553C70.244 46.1502 70.4001 45.869 70.6521 45.6964Z" fill="#E16104"/>
<path fill-rule="evenodd" clip-rule="evenodd" d="M7.26371 11.0126L7.52773 4.87931C7.6208 2.71719 9.95669 1.40886 11.8489 2.45905L23.2033 8.76066C24.6092 9.54088 25.1163 11.313 24.3361 12.7188L17.7434 24.5976C16.9632 26.0034 15.1911 26.5106 13.7853 25.7304L2.43088 19.4288C0.53862 18.3786 0.413109 15.7042 2.19865 14.4814L7.26371 11.0126ZM7.24289 11.4961C7.24287 11.4965 7.24285 11.497 7.24283 11.4974L8.21236 11.5391L7.24283 11.4974L7.24289 11.4961ZM72.1492 47.0236L77.2143 43.5548C78.9998 42.332 78.8743 39.6576 76.982 38.6074L65.6276 32.3058C64.2218 31.5256 62.4497 32.0328 61.6695 33.4386L55.0768 45.3174C54.2966 46.7232 54.8037 48.4953 56.2096 49.2755L67.564 55.5771C69.4562 56.6273 71.7921 55.319 71.8852 53.1569L72.1492 47.0236ZM76.1176 41.9535L70.6522 45.6965C70.4002 45.869 70.2442 46.1502 70.2311 46.4554L69.9462 53.0734C69.9151 53.7941 69.1365 54.2302 68.5058 53.8802L57.1514 47.5786C56.6828 47.3185 56.5137 46.7278 56.7738 46.2592L63.3664 34.3804C63.6265 33.9118 64.2172 33.7427 64.6858 34.0028L76.0402 40.3044C76.671 40.6545 76.7128 41.5459 76.1176 41.9535ZM9.46674 4.96278L9.18184 11.5808C9.16871 11.886 9.01267 12.1672 8.76065 12.3397L3.29528 16.0827C2.70009 16.4903 2.74194 17.3817 3.37269 17.7318L14.7271 24.0334C15.1957 24.2935 15.7864 24.1244 16.0465 23.6558L22.6391 11.777C22.8992 11.3084 22.7301 10.7177 22.2615 10.4576L10.9071 4.15602C10.2764 3.80596 9.49776 4.24207 9.46674 4.96278Z" fill="#BD4501"/>
<path fill-rule="evenodd" clip-rule="evenodd" d="M10.9365 5.17564C11.2287 5.01533 11.5827 5.0162 11.8741 5.17794L15.4802 7.17927C15.9488 7.43935 16.1178 8.03006 15.8578 8.49866C15.5977 8.96727 15.007 9.13632 14.5384 8.87624L12.2786 7.62211L11.9975 12.2589C11.965 12.7939 11.5051 13.2013 10.9701 13.1688C10.4352 13.1364 10.0278 12.6764 10.0602 12.1415L10.4346 5.96769C10.4548 5.63501 10.6443 5.33595 10.9365 5.17564Z" fill="#FA7616"/>
<path d="M62.0514 44.7485L68.6441 32.8697C68.9042 32.4011 68.7351 31.8104 68.2665 31.5503L22.4483 6.12156C21.9797 5.86149 21.389 6.03054 21.1289 6.49914L14.5363 18.3779C14.2762 18.8465 14.4452 19.4373 14.9138 19.6973L60.7321 45.1261C61.2007 45.3862 61.7914 45.2171 62.0514 44.7485Z" fill="#FF8B04"/>
<path fill-rule="evenodd" clip-rule="evenodd" d="M70.3407 33.8116L63.7481 45.6904C62.9678 47.0962 61.1957 47.6033 59.7899 46.8231L13.9717 21.3943C12.5659 20.6141 12.0587 18.842 12.8389 17.4362L19.4316 5.55737C20.2118 4.15156 21.9839 3.64441 23.3897 4.42463L69.208 29.8534C70.6138 30.6336 71.1209 32.4058 70.3407 33.8116ZM68.6437 32.8698L62.0511 44.7486C61.791 45.2172 61.2003 45.3862 60.7317 45.1261L14.9135 19.6974C14.4449 19.4373 14.2758 18.8466 14.5359 18.378L21.1286 6.49918C21.3886 6.03057 21.9793 5.86152 22.4479 6.1216L68.2662 31.5504C68.7348 31.8104 68.9038 32.4012 68.6437 32.8698Z" fill="#BD4501"/>
<path fill-rule="evenodd" clip-rule="evenodd" d="M21.4527 7.16465C21.7128 6.69604 22.3035 6.52699 22.7721 6.78707L54.5903 24.4459C55.0589 24.706 55.2279 25.2967 54.9679 25.7653C54.7078 26.2339 54.1171 26.403 53.6485 26.1429L22.6787 8.95494L19.3824 14.8943C19.1224 15.3629 18.5316 15.532 18.063 15.2719C17.5944 15.0118 17.4254 14.4211 17.6855 13.9525L21.4527 7.16465Z" fill="#FFB053"/>
<path d="M62.8259 37.8309C62.3454 37.5642 62.1668 36.9681 62.427 36.4993C62.6871 36.0306 63.2875 35.8667 63.768 36.1334C64.2484 36.4 64.427 36.9962 64.1669 37.465C63.9067 37.9337 63.3064 38.0975 62.8259 37.8309Z" fill="#E77D02"/>
<path d="M59.704 35.6542C59.1063 35.3225 58.8842 34.581 59.2078 33.9979C59.5314 33.4148 60.2782 33.211 60.8759 33.5427C61.4735 33.8744 61.6957 34.616 61.3721 35.1991C61.0485 35.7821 60.3016 35.9859 59.704 35.6542Z" fill="#E77D02"/>
<path d="M59.8388 38.8866C59.54 38.7207 59.4289 38.3499 59.5907 38.0584C59.7525 37.7669 60.1259 37.665 60.4247 37.8308C60.7236 37.9967 60.8347 38.3674 60.6729 38.659C60.5111 38.9505 60.1376 39.0524 59.8388 38.8866Z" fill="#E77D02"/>
<path d="M62.0041 32.785C61.7053 32.6192 61.5942 32.2484 61.756 31.9568C61.9178 31.6653 62.2912 31.5634 62.59 31.7292C62.8889 31.8951 62.9999 32.2659 62.8381 32.5574C62.6763 32.849 62.3029 32.9508 62.0041 32.785Z" fill="#E77D02"/>
<path d="M56.3552 36.2623C56.0563 36.0964 55.9453 35.7257 56.1071 35.4341C56.2689 35.1426 56.6423 35.0407 56.9411 35.2065C57.2399 35.3724 57.351 35.7432 57.1892 36.0347C57.0274 36.3262 56.654 36.4281 56.3552 36.2623Z" fill="#E77D02"/>
<path d="M57.3217 33.2459C57.0229 33.0801 56.9118 32.7093 57.0736 32.4178C57.2354 32.1262 57.6088 32.0243 57.9077 32.1902C58.2065 32.356 58.3176 32.7268 58.1558 33.0184C57.994 33.3099 57.6205 33.4118 57.3217 33.2459Z" fill="#E77D02"/>
<path d="M50.2343 37.3224C49.9355 37.1565 49.8244 36.7857 49.9862 36.4942C50.148 36.2026 50.5214 36.1008 50.8203 36.2666C51.1191 36.4324 51.2302 36.8032 51.0684 37.0948C50.9066 37.3863 50.5331 37.4882 50.2343 37.3224Z" fill="#E77D02"/>
<path d="M62.1179 41.2816C61.819 41.1157 61.708 40.745 61.8698 40.4534C62.0316 40.1619 62.405 40.06 62.7038 40.2258C63.0026 40.3917 63.1137 40.7625 62.9519 41.054C62.7901 41.3455 62.4167 41.4474 62.1179 41.2816Z" fill="#E77D02"/>
<path d="M56.3626 39.5998C55.8763 39.3299 55.6955 38.7265 55.9588 38.252C56.2222 37.7776 56.8299 37.6117 57.3162 37.8817C57.8025 38.1516 57.9833 38.755 57.72 39.2295C57.4567 39.7039 56.849 39.8697 56.3626 39.5998Z" fill="#E77D02"/>
<path d="M59.6622 42.5552C59.1759 42.2853 58.9951 41.6818 59.2584 41.2074C59.5217 40.7329 60.1294 40.5671 60.6158 40.837C61.1021 41.1069 61.2829 41.7103 61.0195 42.1848C60.7562 42.6592 60.1485 42.8251 59.6622 42.5552Z" fill="#E77D02"/>
<path d="M52.898 36.591C52.4117 36.3211 52.2309 35.7177 52.4943 35.2432C52.7576 34.7688 53.3653 34.603 53.8516 34.8729C54.3379 35.1428 54.5187 35.7462 54.2554 36.2207C53.9921 36.6951 53.3844 36.861 52.898 36.591Z" fill="#E77D02"/>
<path d="M53.2373 39.3299C52.9384 39.1641 52.8273 38.7933 52.9891 38.5018C53.1509 38.2102 53.5244 38.1083 53.8232 38.2742C54.122 38.44 54.2331 38.8108 54.0713 39.1023C53.9095 39.3939 53.5361 39.4958 53.2373 39.3299Z" fill="#E77D02"/>
<path d="M25.0604 17.84C25.389 17.2271 25.8139 16.753 26.3351 16.4177C26.8594 16.0766 27.4284 15.8998 28.0421 15.8873C28.6649 15.8721 29.2768 16.0256 29.878 16.3479C30.6148 16.7429 31.1412 17.2755 31.4572 17.9457C31.7733 18.6159 31.8396 19.3343 31.6562 20.101L29.9941 19.21C30.0094 18.8844 29.9384 18.5921 29.7812 18.3333C29.6299 18.0777 29.4098 17.8725 29.121 17.7177C28.6554 17.4681 28.1913 17.4279 27.7287 17.5973C27.2661 17.7666 26.8895 18.1224 26.5988 18.6647C26.3081 19.2069 26.2203 19.7176 26.3353 20.1966C26.4504 20.6756 26.7407 21.0399 27.2063 21.2895C27.4951 21.4443 27.7879 21.5139 28.0845 21.4984C28.387 21.4861 28.6697 21.3834 28.9325 21.1905L30.5946 22.0815C30.0576 22.6586 29.4226 23.0011 28.6895 23.1089C27.9595 23.2108 27.2262 23.0643 26.4894 22.6693C25.8882 22.347 25.42 21.9253 25.0848 21.4042C24.7586 20.8803 24.5908 20.3085 24.5815 19.6889C24.5722 19.0693 24.7318 18.453 25.0604 17.84ZM34.0986 21.3989C34.4208 21.2226 34.7556 21.1289 35.103 21.1178C35.4535 21.1009 35.7909 21.1793 36.115 21.3531L35.2572 22.9533L34.8417 22.7305C34.4645 22.5283 34.1373 22.4592 33.8602 22.5231C33.5863 22.5811 33.3403 22.8135 33.1223 23.2202L31.8948 25.51L30.383 24.6996L33.0276 19.7663L34.5394 20.5767L34.0986 21.3989ZM40.18 26.6735C40.1042 26.8149 40.0164 26.9575 39.9165 27.1013L36.495 25.2672C36.3543 25.5863 36.3252 25.8742 36.4076 26.1309C36.4991 26.3848 36.6716 26.5797 36.9251 26.7155C37.3023 26.9178 37.6499 26.8992 37.9678 26.6599L39.5769 27.5225C39.3206 27.8024 39.0139 28.0136 38.6568 28.1561C38.3056 28.3016 37.9284 28.3612 37.5253 28.3348C37.1221 28.3084 36.7201 28.1877 36.3193 27.9729C35.836 27.7138 35.461 27.38 35.1944 26.9715C34.9278 26.563 34.7911 26.1103 34.7842 25.6135C34.7774 25.1166 34.9115 24.6118 35.1863 24.099C35.4612 23.5862 35.8045 23.1936 36.2162 22.921C36.6337 22.6517 37.0864 22.5149 37.5742 22.5109C38.062 22.5068 38.5505 22.6359 39.0397 22.8981C39.5171 23.154 39.8878 23.4817 40.1517 23.8812C40.4156 24.2806 40.5512 24.7213 40.5584 25.2032C40.5716 25.6883 40.4454 26.1784 40.18 26.6735ZM38.8461 25.4462C38.9851 25.1869 39.0073 24.9332 38.9126 24.6852C38.8179 24.4371 38.638 24.242 38.3728 24.0999C38.1193 23.964 37.8647 23.9223 37.6089 23.9749C37.359 24.0306 37.1407 24.183 36.9541 24.432L38.8461 25.4462ZM40.6391 27.0106C40.9108 26.5037 41.2436 26.1093 41.6376 25.8273C42.0375 25.5484 42.4578 25.3943 42.8984 25.3649C43.3391 25.3356 43.7627 25.4299 44.1694 25.6479C44.4936 25.8217 44.752 26.0475 44.9445 26.3252C45.143 26.6061 45.2572 26.9026 45.2873 27.2146L46.5148 24.9247L48.0266 25.7352L44.5195 32.2776L43.0076 31.4672L43.3868 30.7599C43.1189 30.9198 42.8145 30.9994 42.4734 30.9987C42.1382 31.0011 41.7968 30.9091 41.449 30.7227C41.0423 30.5047 40.7293 30.2041 40.5098 29.8209C40.2935 29.4317 40.1907 28.9935 40.2016 28.5061C40.2215 28.016 40.3673 27.5175 40.6391 27.0106ZM44.3299 29.0005C44.5321 28.6233 44.5856 28.2688 44.4903 27.9369C44.4009 27.6083 44.2059 27.3634 43.9053 27.2022C43.6047 27.0411 43.2899 27.0127 42.9608 27.117C42.6408 27.2186 42.3796 27.458 42.1774 27.8353C41.9752 28.2125 41.9172 28.5684 42.0034 28.9029C42.0987 29.2347 42.2967 29.4812 42.5973 29.6424C42.8979 29.8035 43.2098 29.8303 43.533 29.7228C43.862 29.6185 44.1277 29.3777 44.3299 29.0005ZM49.293 27.8254C49.0277 27.6832 48.8507 27.4897 48.762 27.2448C48.6822 26.9972 48.704 26.7584 48.8272 26.5286C48.9536 26.2928 49.1404 26.1425 49.3876 26.0778C49.6438 26.0102 49.9045 26.0476 50.1698 26.1898C50.4291 26.3288 50.5986 26.5221 50.6784 26.7697C50.7671 27.0146 50.7483 27.2549 50.6219 27.4907C50.4987 27.7205 50.309 27.8692 50.0528 27.9367C49.8056 28.0015 49.5523 27.9644 49.293 27.8254ZM49.7696 28.741L47.125 33.6743L45.6132 32.8639L48.2578 27.9306L49.7696 28.741ZM51.6574 34.4536L50.9702 35.7356L50.201 35.3233C49.6529 35.0294 49.2967 34.6677 49.1323 34.2382C48.9712 33.8028 49.0533 33.2815 49.3788 32.6744L50.4309 30.7117L49.8297 30.3894L50.5027 29.134L51.1039 29.4563L51.7485 28.2539L53.2603 29.0643L52.6157 30.2667L53.6059 30.7975L52.9329 32.0529L51.9427 31.5221L50.8811 33.5025C50.8021 33.6499 50.7806 33.7749 50.8166 33.8777C50.8526 33.9804 50.9531 34.0761 51.1181 34.1645L51.6574 34.4536ZM53.7813 37.3336C53.3511 37.1029 53.0075 36.8239 52.7505 36.4964C52.4935 36.169 52.3357 35.8264 52.2771 35.4687C52.2216 35.1051 52.2674 34.7578 52.4144 34.4269L53.9085 35.2279C53.8346 35.4083 53.8399 35.5894 53.9245 35.7714C54.0091 35.9533 54.1545 36.0995 54.3608 36.2101C54.5494 36.3112 54.7128 36.3533 54.8509 36.3363C54.9981 36.3165 55.1033 36.2477 55.1664 36.1298C55.2423 35.9883 55.2239 35.8457 55.1113 35.7019C55.0019 35.5522 54.8042 35.3476 54.5184 35.0881C54.209 34.816 53.9601 34.5726 53.7717 34.3578C53.5865 34.1371 53.4606 33.8837 53.3939 33.5976C53.3304 33.3055 53.3887 32.9915 53.5688 32.6556C53.7205 32.3727 53.9345 32.1574 54.211 32.0096C54.4965 31.8592 54.8259 31.7967 55.1992 31.8223C55.5783 31.851 55.9772 31.9776 56.3956 32.2019C57.0145 32.5337 57.4186 32.9476 57.608 33.4436C57.8032 33.9429 57.7915 34.4601 57.5728 34.9955L56.1759 34.2466C56.244 34.0631 56.24 33.8864 56.1641 33.7167C56.094 33.5502 55.9558 33.4116 55.7495 33.301C55.5727 33.2062 55.4182 33.1689 55.286 33.1891C55.1569 33.2034 55.0608 33.2695 54.9976 33.3874C54.9218 33.5288 54.9386 33.6744 55.048 33.8241C55.1633 33.977 55.3612 34.1741 55.6416 34.4155C55.9564 34.7057 56.2035 34.9595 56.3828 35.177C56.5653 35.3887 56.6867 35.6435 56.7471 35.9414C56.8165 36.2366 56.7625 36.5567 56.5851 36.9017C56.4303 37.1905 56.2088 37.4056 55.9205 37.547C55.6413 37.6857 55.3137 37.7377 54.9377 37.7031C54.5676 37.6716 54.1821 37.5484 53.7813 37.3336Z" fill="white"/>
</svg>
