<svg width="684" height="618" viewBox="0 0 684 618" fill="none" xmlns="http://www.w3.org/2000/svg">
<path d="M638.245 459.476C616.325 494.614 586.952 525.514 551.801 550.409C516.649 575.304 476.408 593.705 433.375 604.56C390.341 615.415 345.36 618.51 301.001 613.667C256.642 608.825 213.776 596.141 174.85 576.341C135.924 556.541 101.702 530.014 74.1367 498.278C46.5714 466.541 26.2018 430.217 14.1874 391.379C2.17294 352.542 -1.25209 311.95 4.10694 271.919C9.46598 231.888 23.5047 193.199 45.4246 158.061C67.3446 122.923 96.7174 92.0234 131.869 67.1286C167.02 42.2337 207.261 23.8322 250.295 12.9774C293.328 2.12265 338.309 -0.972279 382.668 3.86986C427.028 8.71201 469.894 21.3961 508.82 41.196C547.746 60.9959 581.967 87.5229 609.533 119.26C637.098 150.996 657.468 187.321 669.482 226.158C681.497 264.995 684.922 305.588 679.562 345.618C674.203 385.649 660.165 424.338 638.245 459.476L638.245 459.476Z" stroke="#917EBD" strokeWidth="1.2986" strokeDasharray="15.58 15.58"/>
</svg>
