<svg width="1439" height="855" viewBox="0 0 1439 855" fill="none" xmlns="http://www.w3.org/2000/svg">
<path d="M1.5 3.33901L3.30286 4.94064L4.29909 3.81924L12.8973 11.4578L11.9011 12.5792L20.4994 20.2177L21.4956 19.0963L30.0938 26.7349L29.0976 27.8563L37.6959 35.4948L38.6921 34.3734L47.2904 42.012L46.2941 43.1334L54.8924 50.7719L55.8886 49.6505L64.4869 57.2891L63.4906 58.4105L72.0889 66.049L73.0851 64.9276L81.6834 72.5662L80.6871 73.6876L89.2854 81.3261L90.2816 80.2047L98.8799 87.8433L97.8836 88.9647L106.482 96.6032L107.478 95.4818L116.076 103.12L115.08 104.242L123.678 111.88L124.675 110.759L133.273 118.397L132.277 119.519L140.875 127.157L141.871 126.036L150.469 133.675L149.473 134.796L153.772 138.615C155.264 139.94 156.759 141.26 158.258 142.573L159.246 141.444C162.238 144.066 165.244 146.663 168.262 149.235L167.289 150.377C170.314 152.954 173.351 155.507 176.402 158.035L177.359 156.88C180.406 159.405 183.465 161.905 186.538 164.381L185.597 165.549C188.702 168.052 191.821 170.529 194.952 172.982L195.877 171.801C199.003 174.249 202.141 176.673 205.293 179.072L204.384 180.265C207.541 182.668 210.711 185.046 213.892 187.399L214.784 186.193C217.977 188.555 221.182 190.891 224.4 193.202L223.525 194.42C226.758 196.743 230.003 199.04 233.26 201.312L234.118 200.081C237.37 202.349 240.634 204.592 243.909 206.809L243.068 208.052C246.355 210.277 249.654 212.477 252.964 214.651L253.788 213.397C257.111 215.58 260.445 217.738 263.792 219.869L262.986 221.135C266.338 223.27 269.701 225.38 273.076 227.464L273.864 226.188C277.233 228.269 280.612 230.324 284.003 232.353L283.232 233.64C286.648 235.685 290.075 237.704 293.512 239.696L294.265 238.399C297.699 240.389 301.144 242.355 304.6 244.294L303.865 245.602C307.327 247.544 310.799 249.461 314.281 251.352L314.997 250.034C318.483 251.926 321.98 253.793 325.487 255.634L324.789 256.962C328.312 258.812 331.844 260.634 335.386 262.431L336.065 261.093C339.601 262.887 343.146 264.654 346.701 266.396L346.042 267.743C349.606 269.489 353.18 271.208 356.763 272.901L357.404 271.545C360.996 273.242 364.596 274.913 368.206 276.557L367.584 277.923C371.2 279.57 374.825 281.19 378.459 282.785L379.061 281.411C382.688 283.002 386.324 284.567 389.968 286.106L389.385 287.488C393.049 289.035 396.722 290.555 400.403 292.049L400.967 290.659C404.644 292.151 408.328 293.616 412.021 295.054L411.476 296.452C415.175 297.893 418.882 299.307 422.596 300.695L423.121 299.29C426.837 300.678 430.56 302.039 434.291 303.374L433.786 304.786C437.529 306.125 441.279 307.437 445.036 308.722L445.522 307.303C449.273 308.586 453.03 309.842 456.795 311.071L456.329 312.497C460.104 313.73 463.885 314.935 467.673 316.114L468.119 314.682C471.908 315.861 475.704 317.013 479.506 318.138L479.08 319.576C482.889 320.703 486.704 321.803 490.525 322.876L490.93 321.432C494.745 322.503 498.565 323.547 502.391 324.564L502.005 326.014C505.847 327.035 509.695 328.03 513.548 328.997L513.913 327.542C517.76 328.507 521.611 329.445 525.468 330.356L525.123 331.816C528.986 332.729 532.855 333.614 536.728 334.472L537.052 333.008C540.925 333.866 544.802 334.697 548.683 335.5L548.379 336.969C552.27 337.775 556.164 338.553 560.063 339.304L560.347 337.831C564.239 338.58 568.135 339.303 572.035 339.998L571.772 341.474C575.682 342.171 579.596 342.841 583.513 343.483L583.756 342.003C587.669 342.644 591.587 343.258 595.507 343.845L595.285 345.329C599.212 345.916 603.143 346.477 607.076 347.01L607.277 345.524C611.205 346.056 615.136 346.561 619.069 347.039L618.888 348.528C622.832 349.007 626.778 349.458 630.726 349.882L630.887 348.391C634.828 348.814 638.772 349.21 642.718 349.579L642.579 351.072C646.532 351.441 650.486 351.783 654.443 352.097L654.562 350.602C658.514 350.916 662.469 351.203 666.425 351.462L666.327 352.959C670.289 353.218 674.254 353.45 678.219 353.655L678.296 352.157C682.254 352.361 686.214 352.538 690.174 352.688L690.118 354.187C694.086 354.336 698.055 354.459 702.024 354.553L702.06 353.054C706.023 353.149 709.987 353.216 713.95 353.256L713.935 354.756C717.906 354.795 721.876 354.808 725.847 354.793L725.841 353.293C729.805 353.278 733.768 353.235 737.732 353.165L737.758 354.665C741.728 354.595 745.698 354.497 749.666 354.372L749.619 352.873C753.581 352.748 757.542 352.596 761.502 352.417L761.57 353.915C765.537 353.735 769.502 353.528 773.466 353.293L773.378 351.795C777.334 351.561 781.288 351.299 785.241 351.01L785.351 352.506C789.311 352.217 793.269 351.9 797.225 351.555L797.095 350.061C801.044 349.717 804.992 349.345 808.937 348.947L809.088 350.439C813.037 350.04 816.983 349.614 820.927 349.16L820.756 347.67C824.693 347.216 828.628 346.736 832.559 346.228L832.751 347.716C836.69 347.207 840.626 346.671 844.558 346.108L844.345 344.623C848.267 344.061 852.186 343.472 856.102 342.856L856.335 344.337C860.256 343.72 864.173 343.075 868.087 342.403L867.833 340.925C871.74 340.254 875.643 339.556 879.542 338.831L879.817 340.306C883.719 339.58 887.618 338.826 891.512 338.046L891.217 336.575C895.101 335.797 898.981 334.991 902.856 334.158L903.171 335.625C907.053 334.79 910.93 333.929 914.803 333.04L914.467 331.578C918.331 330.692 922.189 329.778 926.042 328.837L926.398 330.294C930.252 329.353 934.1 328.385 937.943 327.389L937.567 325.937C941.403 324.944 945.234 323.923 949.059 322.876L949.455 324.322C953.286 323.273 957.112 322.197 960.931 321.093L960.515 319.652C964.318 318.553 968.115 317.427 971.905 316.275L972.342 317.71C976.139 316.555 979.929 315.374 983.713 314.165L983.256 312.736C987.033 311.53 990.804 310.297 994.567 309.037L995.043 310.459C998.805 309.199 1002.56 307.913 1006.31 306.6L1005.81 305.184C1009.55 303.875 1013.28 302.538 1017 301.175L1017.52 302.584C1021.25 301.218 1024.97 299.826 1028.68 298.407L1028.14 297.006C1031.85 295.592 1035.54 294.151 1039.22 292.683L1039.78 294.077C1043.46 292.61 1047.14 291.117 1050.81 289.597L1050.23 288.211C1053.89 286.694 1057.54 285.15 1061.19 283.579L1061.78 284.957C1065.43 283.385 1069.07 281.786 1072.7 280.161L1072.09 278.792C1075.7 277.175 1079.3 275.533 1082.89 273.864L1083.52 275.224C1087.12 273.553 1090.71 271.855 1094.29 270.13L1093.64 268.779C1097.21 267.058 1100.78 265.31 1104.33 263.536L1105 264.878C1108.55 263.109 1112.08 261.313 1115.61 259.491L1114.92 258.158C1118.44 256.341 1121.94 254.498 1125.44 252.629L1126.15 253.952C1129.65 252.08 1133.14 250.182 1136.63 248.257L1135.9 246.944C1139.37 245.029 1142.82 243.087 1146.27 241.12L1147.01 242.423C1150.45 240.458 1153.88 238.467 1157.3 236.451L1156.54 235.159C1159.95 233.146 1163.35 231.107 1166.75 229.043L1167.53 230.324C1170.92 228.259 1174.3 226.167 1177.67 224.05L1176.88 222.779C1180.22 220.678 1183.56 218.551 1186.88 216.398L1187.69 217.657C1191.02 215.501 1194.34 213.319 1197.65 211.113L1196.81 209.865C1200.11 207.662 1203.4 205.434 1206.68 203.18L1207.53 204.416C1210.79 202.171 1214.04 199.901 1217.28 197.605L1216.41 196.382C1219.64 194.095 1222.85 191.782 1226.06 189.445L1226.94 190.657C1230.15 188.316 1233.34 185.95 1236.53 183.558L1235.63 182.359C1238.79 179.979 1241.95 177.575 1245.09 175.146L1246.01 176.332C1249.14 173.912 1252.25 171.466 1255.36 168.996L1254.42 167.822C1257.52 165.356 1260.61 162.866 1263.68 160.351L1264.63 161.512C1267.71 158.993 1270.78 156.449 1273.83 153.881L1272.86 152.733C1275.88 150.192 1278.88 147.626 1281.88 145.036L1282.86 146.171C1285.85 143.578 1288.84 140.96 1291.8 138.319L1290.81 137.199C1293.77 134.562 1296.72 131.901 1299.65 129.216L1300.67 130.323C1302.14 128.978 1303.6 127.627 1305.07 126.271L1309.28 122.359L1308.26 121.259L1316.7 113.436L1317.72 114.536L1326.15 106.713L1325.13 105.613L1333.57 97.7897L1334.59 98.8894L1343.02 91.0663L1342 89.9665L1350.44 82.1433L1351.46 83.2431L1359.89 75.4199L1358.87 74.3202L1367.31 66.497L1368.33 67.5967L1376.76 59.7736L1375.74 58.6738L1384.17 50.8506L1385.19 51.9504L1393.63 44.1272L1392.61 43.0275L1401.04 35.2043L1402.06 36.3041L1410.5 28.4809L1409.48 27.3811L1417.91 19.5579L1418.93 20.6577L1427.37 12.8345L1426.35 11.7348L1434.78 3.9116L1435.8 5.01136L1437.5 3.43713V5.93748H1439V17.8125H1437.5V29.6875H1439V41.5625H1437.5V53.4375H1439V65.3125H1437.5V77.1875H1439V89.0625H1437.5V100.938H1439V112.812H1437.5V124.687H1439V136.562H1437.5V148.438H1439V160.312H1437.5V172.188H1439V184.063H1437.5V195.938H1439V207.813H1437.5V219.687H1439V231.562H1437.5V243.437H1439V255.312H1437.5V267.188H1439V279.062H1437.5V290.938H1439V302.813H1437.5V314.688H1439V326.562H1437.5V338.438H1439V350.312H1437.5V362.188H1439V374.062H1437.5V385.938H1439V397.813H1437.5V409.688H1439V421.563H1437.5V433.438H1439V445.312H1437.5V457.188H1439V469.062H1437.5V480.938H1439V492.812H1437.5V504.688H1439V516.562H1437.5V528.438H1439V540.312H1437.5V552.188H1439V564.062H1437.5V575.938H1439V587.812H1437.5V599.688H1439V611.562H1437.5V623.438H1439V635.312H1437.5V647.188H1439V659.062H1437.5V670.938H1439V682.812H1437.5V694.688H1439V706.562H1437.5V718.438H1439V730.312H1437.5V742.188H1439V754.062H1437.5V765.938H1439V777.812H1437.5V789.688H1439V801.562H1437.5V813.438H1439V825.312H1437.5V837.188H1439V849.062H1437.5V853.5H1433V855H1421.01V853.5H1409.02V855H1397.03V853.5H1385.04V855H1373.05V853.5H1361.05V855H1349.06V853.5H1337.07V855H1325.08V853.5H1313.09V855H1301.1V853.5H1289.1V855H1277.11V853.5H1265.12V855H1253.13V853.5H1241.14V855H1229.15V853.5H1217.15V855H1205.16V853.5H1193.17V855H1181.18V853.5H1169.19V855H1157.2V853.5H1145.2V855H1133.21V853.5H1121.22V855H1109.23V853.5H1097.24V855H1085.24V853.5H1073.25V855H1061.26V853.5H1049.27V855H1037.28V853.5H1025.29V855H1013.29V853.5H1001.3V855H989.311V853.5H977.32V855H965.328V853.5H953.336V855H941.345V853.5H929.353V855H917.362V853.5H905.37V855H893.378V853.5H881.387V855H869.395V853.5H857.403V855H845.412V853.5H833.42V855H821.429V853.5H809.437V855H797.445V853.5H785.454V855H773.462V853.5H761.47V855H749.479V853.5H737.487V855H725.495V853.5H713.504V855H701.512V853.5H689.521V855H677.529V853.5H665.537V855H653.546V853.5H641.554V855H629.562V853.5H617.571V855H605.579V853.5H593.587V855H581.596V853.5H569.604V855H557.612V853.5H545.621V855H533.629V853.5H521.638V855H509.646V853.5H497.654V855H485.663V853.5H473.671V855H461.679V853.5H449.688V855H437.696V853.5H425.704V855H413.713V853.5H401.721V855H389.729V853.5H377.738V855H365.746V853.5H353.754V855H341.763V853.5H329.771V855H317.779V853.5H305.788V855H293.796V853.5H281.804V855H269.813V853.5H257.821V855H245.829V853.5H233.838V855H221.846V853.5H209.854V855H197.863V853.5H185.871V855H173.879V853.5H161.888V855H149.896V853.5H137.904V855H125.913V853.5H113.921V855H101.929V853.5H89.9375V855H77.9458V853.5H65.9542V855H53.9625V853.5H41.9708V855H29.9792V853.5H17.9875V855H5.99583V853.5H1.5V849.063H0V837.188H1.5V825.312H0V813.438H1.5V801.562H0V789.688H1.5V777.812H0V765.938H1.5V754.062H0V742.188H1.5V730.312H0V718.438H1.5V706.562H0V694.688H1.5V682.812H0V670.938H1.5V659.062H0V647.188H1.5V635.312H0V623.438H1.5V611.562H0V599.688H1.5V587.812H0V575.938H1.5V564.062H0V552.188H1.5V540.312H0V528.438H1.5V516.562H0V504.688H1.5V492.812H0V480.938H1.5V469.062H0V457.188H1.5V445.312H0V433.437H1.5V421.562H0V409.688H1.5V397.813H0V385.938H1.5V374.062H0V362.188H1.5V350.312H0V338.438H1.5V326.562H0V314.688H1.5V302.812H0V290.938H1.5V279.062H0V267.188H1.5V255.312H0V243.437H1.5V231.563H0V219.688H1.5V207.812H0V195.938H1.5V184.062H0V172.188H1.5V160.312H0V148.438H1.5V136.562H0V124.688H1.5V112.813H0V100.938H1.5V89.0625H0V77.1875H1.5V65.3125H0V53.4375H1.5V41.5625H0V29.6875H1.5V17.8125H0V5.9375H1.5V3.33901Z" stroke="#917EBD" stroke-width="3" stroke-dasharray="12 12"/>
</svg>
