<svg width="370" height="389" viewBox="0 0 370 389" fill="none" xmlns="http://www.w3.org/2000/svg">
<path d="M0 10.4196V3.47321H0.87193V1.37064L1.69616 2.6663L0.96047 3.1343L1.52586 4.02307C2.16915 5.03431 2.81868 6.03792 3.47437 7.03391L4.20265 6.55446C5.50896 8.53876 6.83974 10.4926 8.19424 12.4161L7.48134 12.9181C8.85173 14.8642 10.2463 16.7792 11.6644 18.6633L12.3611 18.139C13.79 20.0375 15.2428 21.9045 16.7186 23.7398L16.0392 24.2862C17.5296 26.1397 19.0435 27.9611 20.58 29.7504L21.2415 29.1824C22.7892 30.9846 24.3599 32.7542 25.9528 34.4911L25.3102 35.0805C26.9172 36.8327 28.5467 38.5518 30.1979 40.2378L30.8208 39.6277C32.482 41.324 34.1653 42.9866 35.8697 44.6156L35.2672 45.2459C36.9857 46.8883 38.7256 48.4967 40.486 50.071L41.0673 49.4211C42.8357 51.0026 44.625 52.5496 46.4341 54.0621L45.8749 54.731C47.6985 56.2556 49.5422 57.7453 51.4051 59.2001L51.9418 58.5129C53.8102 59.972 55.6979 61.3958 57.6041 62.7843L57.0908 63.4891C59.0119 64.8885 60.9518 66.2524 62.9094 67.5806L63.399 66.859C65.3591 68.1889 67.337 69.483 69.3319 70.7412L68.8667 71.4787C70.877 72.7466 72.9044 73.9782 74.9478 75.1736L75.3881 74.421C77.4312 75.6162 79.4905 76.775 81.565 77.8974L81.15 78.6643C83.2402 79.7952 85.3457 80.8893 87.4656 81.9466L87.8547 81.1664C89.9716 82.2223 92.1029 83.2413 94.2476 84.2235L93.8845 85.0163C96.0449 86.0057 98.2188 86.958 100.405 87.873L100.742 87.0687C102.923 87.9816 105.117 88.8573 107.322 89.6958L107.012 90.5108C109.233 91.3553 111.465 92.1622 113.707 92.9315L113.99 92.1068C116.226 92.8738 118.473 93.6033 120.728 94.2954L120.473 95.129C122.743 95.8258 125.024 96.4847 127.313 97.1059L127.541 96.2644C129.822 96.8833 132.111 97.4646 134.408 98.0082L134.207 98.8567C136.518 99.4037 138.836 99.9127 141.161 100.384L141.334 99.5293C143.65 99.9986 145.973 100.43 148.301 100.824L148.156 101.684C150.496 102.079 152.842 102.437 155.193 102.757L155.31 101.893C157.652 102.211 159.998 102.492 162.347 102.735L162.258 103.602C164.618 103.846 166.982 104.052 169.348 104.219L169.41 103.349C171.767 103.516 174.126 103.645 176.487 103.736L176.453 104.608C178.824 104.699 181.196 104.753 183.568 104.768L183.574 103.896C185.936 103.911 188.299 103.888 190.661 103.827L190.684 104.699C193.055 104.638 195.426 104.539 197.794 104.401L197.744 103.531C200.102 103.394 202.459 103.22 204.812 103.007L204.891 103.876C207.253 103.662 209.613 103.411 211.968 103.121L211.862 102.256C214.206 101.968 216.546 101.642 218.881 101.278L219.015 102.14C221.359 101.775 223.698 101.372 226.03 100.931L225.868 100.074C228.188 99.6353 230.502 99.159 232.809 98.6449L232.998 99.496C235.314 98.98 237.622 98.4263 239.922 97.8347L239.705 96.9902C241.99 96.4023 244.268 95.7769 246.536 95.114L246.781 95.9509C249.057 95.2856 251.324 94.5827 253.581 93.8422L253.31 93.0137C255.552 92.2781 257.783 91.5053 260.004 90.6952L260.303 91.5144C262.53 90.7018 264.746 89.8518 266.95 88.9646L266.625 88.1558C268.813 87.2747 270.99 86.3568 273.153 85.4019L273.505 86.1996C275.673 85.2424 277.828 84.2484 279.969 83.2173L279.591 82.4317C281.716 81.4082 283.827 80.3482 285.923 79.2515L286.327 80.0241C288.426 78.926 290.51 77.7914 292.578 76.6203L292.149 75.8615C294.201 74.6992 296.238 73.5008 298.257 72.2664L298.712 73.0103C300.732 71.7757 302.735 70.5051 304.72 69.1985L304.241 68.4702C306.211 67.1736 308.164 65.8416 310.098 64.474L310.601 65.186C312.533 63.8202 314.446 62.4191 316.34 60.9828L315.813 60.2881C317.692 58.8629 319.552 57.4029 321.392 55.908L321.941 56.5847C323.776 55.0941 325.59 53.5691 327.384 52.0095L326.812 51.3515C328.592 49.8043 330.351 48.223 332.088 46.6076L332.682 47.2462C334.412 45.6381 336.12 43.9964 337.807 42.321L337.192 41.7025C338.865 40.0408 340.515 38.346 342.143 36.6179L342.778 37.2158C344.396 35.4982 345.992 33.7479 347.565 31.965L346.911 31.3882C348.47 29.6208 350.007 27.8212 351.519 25.9894L352.191 26.5445C353.693 24.7258 355.171 22.8755 356.626 20.9935L355.936 20.4604C357.376 18.5968 358.792 16.7022 360.184 14.7763L360.891 15.2871C362.272 13.3759 363.63 11.4342 364.962 9.46208L364.24 8.97393C365.557 7.02463 366.85 5.04539 368.117 3.03622L368.855 3.50149C368.946 3.35689 369.037 3.21214 369.128 3.06723V3.47302H370V10.4195H369.128V17.3659H370V24.3123H369.128V31.2588H370V38.2052H369.128V45.1517H370V52.0981H369.128V59.0446H370V65.991H369.128V72.9374H370V79.8839H369.128V86.8303H370V93.7768H369.128V100.723H370V107.67H369.128V114.616H370V121.563H369.128V128.509H370V135.455H369.128V142.402H370V149.348H369.128V156.295H370V163.241H369.128V170.188H370V177.134H369.128V184.08H370V191.027H369.128V197.973H370V204.92H369.128V211.866H370V218.813H369.128V225.759H370V232.705H369.128V239.652H370V246.598H369.128V253.545H370V260.491H369.128V267.438H370V274.384H369.128V281.33H370V288.277H369.128V295.223H370V302.17H369.128V309.116H370V316.062H369.128V323.009H370V329.955H369.128V336.902H370V343.848H369.128V350.795H370V357.741H369.128V364.688H370V371.634H369.128V378.58H370V385.527H369.128V388.128H366.574V389H359.722V388.128H352.87V389H346.018V388.128H339.166V389H332.315V388.128H325.463V389H318.611V388.128H311.759V389H304.907V388.128H298.055V389H291.204V388.128H284.352V389H277.5V388.128H270.648V389H263.796V388.128H256.944V389H250.093V388.128H243.241V389H236.389V388.128H229.537V389H222.685V388.128H215.833V389H208.981V388.128H202.13V389H195.278V388.128H188.426V389H181.574V388.128H174.722V389H167.87V388.128H161.019V389H154.167V388.128H147.315V389H140.463V388.128H133.611V389H126.759V388.128H119.907V389H113.056V388.128H106.204V389H99.3518V388.128H92.5V389H85.6481V388.128H78.7963V389H71.9444V388.128H65.0926V389H58.2407V388.128H51.3889V389H44.537V388.128H37.6852V389H30.8333V388.128H23.9815V389H17.1296V388.128H10.2778V389H3.42593V388.128H0.87193V385.527H0V378.581H0.87193V371.634H0V364.688H0.87193V357.741H0V350.795H0.87193V343.848H0V336.902H0.87193V329.955H0V323.009H0.87193V316.063H0V309.116H0.87193V302.17H0V295.223H0.87193V288.277H0V281.33H0.87193V274.384H0V267.438H0.87193V260.491H0V253.545H0.87193V246.598H0V239.652H0.87193V232.705H0V225.759H0.87193V218.812H0V211.866H0.87193V204.92H0V197.973H0.87193V191.027H0V184.08H0.87193V177.134H0V170.187H0.87193V163.241H0V156.295H0.87193V149.348H0V142.402H0.87193V135.455H0V128.509H0.87193V121.562H0V114.616H0.87193V107.67H0V100.723H0.87193V93.7768H0V86.8304H0.87193V79.8839H0V72.9375H0.87193V65.9911H0V59.0447H0.87193V52.0982H0V45.1518H0.87193V38.2054H0V31.2589H0.87193V24.3125H0V17.3661H0.87193V10.4196H0Z" stroke="#917EBD" stroke-width="1.74386" stroke-dasharray="6.98 6.98"/>
<path d="M0 29L2.52067 32.667C91.5864 162.238 283.538 160.322 370 29V29V389H0V29Z" fill="url(#paint0_linear_524_2980)"/>
<defs>
<linearGradient id="paint0_linear_524_2980" x1="0" y1="209" x2="370" y2="209" gradientUnits="userSpaceOnUse">
<stop stop-color="#A1C4FD"/>
<stop offset="1" stop-color="#C2E9FB"/>
</linearGradient>
</defs>
</svg>
