<svg width="27" height="26" viewBox="0 0 27 26" fill="none" xmlns="http://www.w3.org/2000/svg">
<path d="M25.2355 10.9576L25.2354 10.9574L25.2243 10.9662L19.6156 15.3962C19.5083 15.4781 19.428 15.5905 19.3853 15.7188C19.3419 15.8489 19.3393 15.9892 19.3777 16.1209L21.3165 22.9583L21.3174 22.9612C21.3889 23.2077 21.3822 23.4703 21.2983 23.7128C21.2146 23.955 21.058 24.1653 20.85 24.3149C20.6399 24.4641 20.3887 24.5442 20.1311 24.5442C19.8732 24.5442 19.6217 24.4639 19.4115 24.3144L19.4116 24.3143L19.4001 24.3065L13.4962 20.3495C13.3844 20.2734 13.2522 20.2327 13.1169 20.2327C12.9816 20.2327 12.8495 20.2734 12.7377 20.3495L6.83377 24.3065L6.83146 24.3081C6.61763 24.4532 6.3643 24.5288 6.10594 24.5248C5.84758 24.5208 5.59673 24.4372 5.38752 24.2856C5.17831 24.134 5.02089 23.9215 4.93668 23.6772C4.85247 23.433 4.84556 23.1687 4.91689 22.9203L4.91752 22.9181L6.84127 16.1019L6.84132 16.1019L6.84319 16.0949C6.87754 15.966 6.87338 15.8299 6.83121 15.7034C6.78905 15.577 6.71073 15.4656 6.60594 15.3831L6.60574 15.383L1.01658 10.9892L1.01668 10.9891L1.00627 10.9813C0.795747 10.8245 0.639585 10.6057 0.559681 10.3556C0.479777 10.1056 0.480139 9.83677 0.560715 9.58692C0.641292 9.33708 0.798042 9.11871 1.00899 8.96244C1.21993 8.80618 1.47449 8.71985 1.73698 8.71556L1.73698 8.71568L1.74769 8.71527L8.87269 8.44611L8.88048 8.44581L8.88825 8.44527C9.01949 8.43621 9.1453 8.3894 9.25053 8.31048C9.35575 8.23156 9.43593 8.12389 9.48137 8.00044L9.48143 8.00028L11.9356 1.32653L11.9359 1.32566C12.0244 1.08359 12.1852 0.874557 12.3964 0.726874C12.6077 0.57919 12.8592 0.499987 13.1169 0.499987C13.3747 0.499987 13.6262 0.57919 13.8375 0.726874C14.0487 0.874557 14.2095 1.08359 14.298 1.32566L14.2987 1.32756L16.7604 7.97669C16.7605 7.97676 16.7605 7.97683 16.7605 7.9769C16.806 8.10025 16.8861 8.20784 16.9913 8.28673C17.0965 8.36565 17.2223 8.41246 17.3535 8.42152L17.3613 8.42206L17.3691 8.42235L24.4941 8.69152L24.4941 8.69164L24.5048 8.69181C24.7673 8.6961 25.0219 8.78243 25.2328 8.93869C25.4438 9.09496 25.6005 9.31333 25.6811 9.56317C25.7617 9.81302 25.762 10.0818 25.6821 10.3319C25.6022 10.582 25.4461 10.8007 25.2355 10.9576Z" stroke="#FFC448"/>
</svg>
