<svg width="27" height="26" viewBox="0 0 27 26" fill="none" xmlns="http://www.w3.org/2000/svg">
<path d="M25.9165 12.2842C26.2108 12.065 26.429 11.7592 26.5407 11.4098C26.6524 11.0603 26.6519 10.6846 26.5393 10.3354C26.4266 9.98619 26.2076 9.681 25.9127 9.4626C25.6179 9.2442 25.2621 9.12354 24.8953 9.11755L17.7703 8.84838C17.7353 8.84596 17.7017 8.83347 17.6736 8.8124C17.6455 8.79133 17.6241 8.76259 17.612 8.72963L15.1499 2.07963C15.0262 1.74131 14.8015 1.44916 14.5063 1.24276C14.211 1.03636 13.8595 0.925659 13.4993 0.925659C13.139 0.925659 12.7875 1.03636 12.4922 1.24276C12.197 1.44916 11.9723 1.74131 11.8486 2.07963L9.39446 8.75338C9.38233 8.78634 9.36093 8.81508 9.33283 8.83615C9.30474 8.85722 9.27116 8.86972 9.23612 8.87213L2.11112 9.1413C1.74427 9.14729 1.38849 9.26795 1.09367 9.48635C0.798848 9.70475 0.579772 10.0099 0.467157 10.3591C0.354542 10.7083 0.354037 11.084 0.465712 11.4335C0.577387 11.783 0.795642 12.0888 1.08987 12.308L6.67904 16.7017C6.70701 16.7237 6.72792 16.7535 6.73918 16.7872C6.75043 16.821 6.75154 16.8573 6.74237 16.8917L4.81862 23.708C4.71894 24.0551 4.72859 24.4245 4.84628 24.7659C4.96397 25.1073 5.18398 25.4042 5.47638 25.6161C5.76878 25.828 6.11937 25.9448 6.48045 25.9504C6.84154 25.956 7.1956 25.8503 7.49446 25.6476L13.4003 21.6892C13.4294 21.6691 13.4639 21.6584 13.4993 21.6584C13.5346 21.6584 13.5691 21.6691 13.5982 21.6892L19.504 25.6476C19.7989 25.8572 20.1516 25.9699 20.5134 25.9699C20.8752 25.9699 21.228 25.8572 21.5228 25.6476C21.8153 25.4376 22.0355 25.1422 22.1532 24.8019C22.2708 24.4617 22.2802 24.0933 22.1799 23.7476L20.2403 16.9076C20.23 16.8732 20.2306 16.8365 20.2419 16.8025C20.2533 16.7685 20.2748 16.7389 20.3036 16.7175L25.9165 12.2842Z" fill="#FFC448"/>
</svg>
