<svg width="1449" height="278" viewBox="0 0 1449 278" fill="none" xmlns="http://www.w3.org/2000/svg">
<path d="M1449 175.888C1374.5 175.889 1223.99 293.132 1063.5 275.118C903.013 257.104 644.153 164.123 483.667 164.123C323.18 164.123 161.487 200.152 81.8467 224.171L1 260.199" stroke="#917EBD" stroke-width="1.3" stroke-dasharray="12 12"/>
<path fill-rule="evenodd" clip-rule="evenodd" d="M1449 229.698V152.909C1374.5 152.91 1223.99 259.693 1063.5 243.286C903.013 226.879 644.153 142.194 483.667 142.194C323.18 142.194 161.487 175.008 81.8467 196.884L1 229.698V5.81306e-06H81.8467C161.487 5.81306e-06 323.18 5.81306e-06 483.667 5.81306e-06C644.153 5.81306e-06 805.847 5.81306e-06 966.333 5.81306e-06C1126.82 5.81306e-06 1288.51 5.81306e-06 1368.15 5.81306e-06H1449V229.698Z" fill="url(#paint0_linear_263_1232)"/>
<defs>
<linearGradient id="paint0_linear_263_1232" x1="1449" y1="122.5" x2="1" y2="122.5" gradientUnits="userSpaceOnUse">
<stop stop-color="#FBC2EB"/>
<stop offset="1" stop-color="#A18CD1"/>
</linearGradient>
</defs>
</svg>
