<svg width="579" height="486" viewBox="0 0 579 486" fill="none" xmlns="http://www.w3.org/2000/svg">
<path d="M384.524 9.11978L401.076 4.71123L401.612 6.72193L409.888 4.51765C412.382 3.85321 414.881 3.36227 417.371 3.03708L417.102 0.973817C422.426 0.278577 427.716 0.314344 432.857 1.01337L432.576 3.07519C437.657 3.76599 442.587 5.12813 447.247 7.09195L448.055 5.17446C452.915 7.22232 457.489 9.90142 461.653 13.1376L460.376 14.7805C464.369 17.8839 467.969 21.5172 471.057 25.6099L472.718 24.3567C475.843 28.4981 478.462 33.0944 480.461 38.0778L478.53 38.8523C479.464 41.1831 480.259 43.6025 480.9 46.1033L483.026 54.3994L485.042 53.8827L489.296 70.4752L487.28 70.9919L491.533 87.5843L493.549 87.0676L497.802 103.66L495.787 104.177L500.04 120.769L502.056 120.253L506.309 136.845L504.294 137.362L508.547 153.954L510.563 153.438L514.816 170.03L512.8 170.547L517.054 187.139L519.069 186.622L523.323 203.215L521.307 203.732L525.561 220.324L527.576 219.807L531.83 236.4L529.814 236.917L534.068 253.509L536.083 252.992L540.337 269.585L538.321 270.101L542.574 286.694L544.59 286.177L548.843 302.77L546.828 303.286L551.081 319.879L553.097 319.362L557.35 335.955L555.335 336.471L559.588 353.064L561.604 352.547L565.857 369.14L563.842 369.656L568.095 386.249L570.111 385.732L574.364 402.324L572.348 402.841L574.475 411.137C575.203 413.976 575.715 416.781 576.026 419.542L578.093 419.309C578.779 425.396 578.523 431.292 577.464 436.894L575.419 436.507C574.345 442.192 572.412 447.563 569.775 452.504L571.611 453.484C568.821 458.71 565.273 463.469 561.139 467.63L559.663 466.163C555.651 470.202 551.066 473.658 546.079 476.405L547.082 478.227C541.944 481.056 536.393 483.158 530.601 484.401L530.164 482.366C524.688 483.541 518.992 483.921 513.231 483.39L513.04 485.462C507.364 484.938 501.624 483.561 495.961 481.227L496.754 479.303C494.185 478.244 491.63 476.98 489.101 475.499L481.949 471.311L480.898 473.107L466.594 464.73L467.646 462.935L453.342 454.558L452.29 456.354L437.987 447.977L439.038 446.182L424.735 437.805L423.683 439.601L409.379 431.225L410.431 429.429L396.127 421.053L395.076 422.848L380.772 414.472L381.824 412.676L367.52 404.3L366.468 406.095L352.165 397.719L353.216 395.923L338.913 387.547L337.861 389.342L323.557 380.966L324.609 379.17L310.305 370.794L309.254 372.59L294.95 364.213L296.002 362.417L281.698 354.041L280.646 355.837L266.343 347.46L267.394 345.665L253.091 337.288L252.039 339.084L237.735 330.707L238.787 328.912L224.483 320.535L223.432 322.331L209.128 313.954L210.18 312.159L195.876 303.782L194.824 305.578L180.521 297.202L181.572 295.406L167.269 287.03L166.217 288.825L151.913 280.449L152.965 278.653L138.661 270.277L137.61 272.072L123.306 263.696L124.358 261.9L110.054 253.524L109.002 255.319L94.6987 246.943L95.7502 245.147L81.4466 236.771L80.3951 238.566L66.0914 230.19L67.1429 228.395L52.8392 220.018L51.7877 221.814L37.4841 213.437L38.5356 211.642L31.3837 207.453C28.855 205.973 26.5023 204.362 24.3221 202.64L23.0323 204.273C18.2255 200.476 14.2167 196.144 10.9827 191.45L12.6962 190.269C9.41407 185.505 6.9586 180.352 5.30435 175.001L3.31641 175.615C1.56656 169.955 0.68288 164.086 0.636442 158.221L2.71718 158.204C2.6721 152.511 3.44337 146.822 5.00242 141.346L3.00115 140.776C4.60736 135.135 7.0217 129.713 10.2152 124.723L11.9678 125.844C14.9869 121.127 18.7257 116.813 23.1577 113.095L21.8203 111.501C26.1874 107.836 31.2047 104.728 36.8488 102.348L37.6574 104.265C40.2174 103.186 42.9139 102.26 45.7456 101.506L54.0214 99.3014L53.4859 97.2907L70.0378 92.8822L70.5734 94.8929L87.1253 90.4843L86.5897 88.4736L103.142 84.0651L103.677 86.0758L120.229 81.6672L119.694 79.6565L136.246 75.248L136.781 77.2587L153.333 72.8501L152.797 70.8394L169.349 66.4309L169.885 68.4416L186.437 64.033L185.901 62.0223L202.453 57.6138L202.989 59.6245L219.541 55.2159L219.005 53.2052L235.557 48.7967L236.093 50.8074L252.645 46.3988L252.109 44.3881L268.661 39.9796L269.196 41.9903L285.748 37.5817L285.213 35.571L301.765 31.1625L302.3 33.1732L318.852 28.7647L318.317 26.754L334.869 22.3454L335.404 24.3561L351.956 19.9476L351.421 17.9369L367.972 13.5283L368.508 15.539L385.06 11.1305L384.524 9.11978Z" stroke="#917EBD" strokeWidth="4.16158" strokeDasharray="16.65 16.65"/>
</svg>
